<svg width="21" height="14" viewBox="0 0 21 14" fill="none" xmlns="http://www.w3.org/2000/svg">
<path d="M10.5 1.86667C14.1177 1.86667 17.3441 3.85467 18.9191 7C17.3441 10.1453 14.1273 12.1333 10.5 12.1333C6.87273 12.1333 3.65591 10.1453 2.08091 7C3.65591 3.85467 6.88227 1.86667 10.5 1.86667ZM10.5 0C5.72727 0 1.65136 2.90267 0 7C1.65136 11.0973 5.72727 14 10.5 14C15.2727 14 19.3486 11.0973 21 7C19.3486 2.90267 15.2727 0 10.5 0ZM10.5 4.66667C11.8173 4.66667 12.8864 5.712 12.8864 7C12.8864 8.288 11.8173 9.33333 10.5 9.33333C9.18273 9.33333 8.11364 8.288 8.11364 7C8.11364 5.712 9.18273 4.66667 10.5 4.66667ZM10.5 2.8C8.13273 2.8 6.20455 4.68533 6.20455 7C6.20455 9.31467 8.13273 11.2 10.5 11.2C12.8673 11.2 14.7955 9.31467 14.7955 7C14.7955 4.68533 12.8673 2.8 10.5 2.8Z" fill="#002D5D"/>
</svg>
